<svg xmlns="http://www.w3.org/2000/svg" xmlns:xlink="http://www.w3.org/1999/xlink" width="183" height="54" viewBox="0 0 183 54"><defs><path id="i8kna" d="M301.38 297.61c2.43 0 4.45.95 6.05 2.83.21.24.31.5.31.82 0 .46-.22.85-.68 1.17-.2.14-.44.22-.7.22-.48 0-.88-.2-1.21-.57a4.93 4.93 0 0 0-1.69-1.24c-.6-.27-1.3-.4-2.08-.4a5 5 0 0 0-3.86 1.62 6.11 6.11 0 0 0-1.49 4.3c0 1.13.23 2.14.7 3.03a5.18 5.18 0 0 0 4.8 2.85c1.4 0 2.54-.37 3.4-1.1.4-.3.77-.44 1.14-.44.3 0 .56.1.8.28.4.34.6.72.6 1.14 0 .31-.13.6-.38.84a7.76 7.76 0 0 1-5.56 2.11 8.56 8.56 0 0 1-4.39-1.13 8 8 0 0 1-3.04-3.13 9.1 9.1 0 0 1-1.1-4.45c0-1.68.36-3.19 1.07-4.52a7.75 7.75 0 0 1 2.98-3.1 8.44 8.44 0 0 1 4.33-1.13zm17.8-.06c1.09 0 1.94.17 2.56.5.62.34.93.76.93 1.26 0 .15-.01.25-.03.32-.19.67-.6 1-1.24 1-.1 0-.26-.02-.46-.06-.83-.15-1.5-.22-2.01-.22-1.48 0-2.68.34-3.59 1.04-.9.69-1.35 1.62-1.35 2.8v9.18c0 .5-.13.9-.4 1.17-.25.27-.63.4-1.15.4-.5 0-.88-.12-1.14-.39-.27-.26-.4-.65-.4-1.18v-14.06c0-.5.13-.89.4-1.16.26-.27.65-.41 1.14-.41 1.03 0 1.54.52 1.54 1.57v.6a6.83 6.83 0 0 1 5.2-2.36zm19.12 8.53c0 .4-.13.72-.4.99-.27.26-.6.39-1.02.39h-11.74a5.57 5.57 0 0 0 1.96 3.55 6 6 0 0 0 3.97 1.36 5.9 5.9 0 0 0 1.94-.35 5.75 5.75 0 0 0 1.65-.85c.29-.23.63-.34 1.02-.34s.7.1.93.31c.37.31.55.67.55 1.07 0 .38-.16.7-.5.94a8.53 8.53 0 0 1-2.6 1.39 9.23 9.23 0 0 1-7.53-.58 8.03 8.03 0 0 1-3.13-3.1 8.93 8.93 0 0 1-1.13-4.5c0-1.68.35-3.19 1.06-4.52a7.78 7.78 0 0 1 2.97-3.1 8.36 8.36 0 0 1 4.31-1.13c1.59 0 2.96.36 4.11 1.07a7.02 7.02 0 0 1 2.66 2.99c.62 1.28.92 2.75.92 4.4zm-7.69-5.76a5.3 5.3 0 0 0-3.66 1.26 5.68 5.68 0 0 0-1.78 3.36h10.3a5.64 5.64 0 0 0-1.55-3.36 4.5 4.5 0 0 0-3.31-1.26zm17.21-2.7a8.26 8.26 0 0 1 7.37 4.29 8.9 8.9 0 0 1 1.13 4.45v7.01c0 .47-.15.85-.45 1.15-.3.3-.67.46-1.12.46-.46 0-.84-.15-1.13-.46-.3-.3-.45-.68-.45-1.15v-1.16a7.6 7.6 0 0 1-10 1.73 7.88 7.88 0 0 1-2.84-3.13 9.53 9.53 0 0 1-1.04-4.45c0-1.64.37-3.12 1.12-4.45a8.43 8.43 0 0 1 7.42-4.3zm0 14.62a5.22 5.22 0 0 0 4.76-2.88c.48-.89.71-1.89.71-3a6.4 6.4 0 0 0-.7-3.02 5.37 5.37 0 0 0-9.54 0 6.3 6.3 0 0 0-.73 3.02c0 1.11.24 2.11.73 3 .48.9 1.14 1.6 1.98 2.11.83.51 1.76.77 2.8.77zm72.5-14.69c1.09 0 1.94.17 2.56.5.62.34.93.76.93 1.26 0 .15-.01.25-.03.32-.19.67-.6 1-1.24 1-.1 0-.26-.02-.46-.06a11.9 11.9 0 0 0-2.01-.22c-1.48 0-2.68.34-3.58 1.04-.91.69-1.37 1.62-1.37 2.8v9.18c0 .5-.12.9-.38 1.17-.26.27-.65.4-1.16.4-.5 0-.88-.12-1.14-.39-.27-.26-.4-.65-.4-1.18v-14.06c0-.5.13-.89.4-1.16.26-.27.65-.41 1.14-.41 1.03 0 1.54.52 1.54 1.57v.6a6.82 6.82 0 0 1 5.2-2.36zm19.12 8.53c0 .4-.13.72-.4.99-.27.26-.6.39-1.02.39h-11.74a5.57 5.57 0 0 0 1.96 3.55 6 6 0 0 0 3.97 1.36 5.9 5.9 0 0 0 1.93-.35 5.76 5.76 0 0 0 1.66-.85c.29-.23.63-.34 1.02-.34s.7.1.92.31c.38.31.56.67.56 1.07 0 .38-.16.7-.5.94a8.53 8.53 0 0 1-2.6 1.39 9.23 9.23 0 0 1-7.53-.58 8.02 8.02 0 0 1-3.14-3.1 8.94 8.94 0 0 1-1.12-4.5c0-1.68.35-3.19 1.06-4.52a7.78 7.78 0 0 1 2.97-3.1 8.37 8.37 0 0 1 4.31-1.13c1.59 0 2.96.36 4.11 1.07a7.02 7.02 0 0 1 2.66 2.99c.62 1.28.92 2.75.92 4.4zm-7.69-5.76a5.3 5.3 0 0 0-3.66 1.26 5.7 5.7 0 0 0-1.78 3.36h10.3a5.63 5.63 0 0 0-1.55-3.36 4.5 4.5 0 0 0-3.31-1.26zm16.1-2.7c1.34 0 2.54.21 3.6.66a6.14 6.14 0 0 1 2.52 1.82c.27.33.4.67.4 1 0 .36-.18.69-.53.98-.22.17-.51.25-.86.25a2.1 2.1 0 0 1-1.45-.6 4.56 4.56 0 0 0-1.64-1.02 6.4 6.4 0 0 0-2.1-.3 4.9 4.9 0 0 0-2.34.5c-.6.32-.9.77-.9 1.36 0 .42.1.77.3 1.05.2.29.6.55 1.18.79.57.24 1.4.48 2.5.7 2.24.47 3.84 1.1 4.77 1.93.94.81 1.4 1.87 1.4 3.18 0 .96-.25 1.84-.76 2.62a5.14 5.14 0 0 1-2.27 1.85c-1 .46-2.2.68-3.6.68s-2.72-.22-3.96-.66a7.55 7.55 0 0 1-2.9-1.73c-.27-.27-.4-.6-.4-.97 0-.5.2-.92.61-1.23.4-.3.75-.44 1.08-.44.42 0 .8.19 1.18.57.39.44.98.82 1.76 1.15a6.5 6.5 0 0 0 2.5.48c1.18 0 2.09-.2 2.74-.6.65-.4.97-.93.97-1.6 0-.65-.32-1.19-.96-1.62a9.36 9.36 0 0 0-3.24-1.09c-3.96-.77-5.94-2.43-5.94-4.97 0-1.03.3-1.9.9-2.6a5.45 5.45 0 0 1 2.35-1.61c.97-.36 2-.54 3.09-.54zm17.7-.04c1.43 0 2.7.32 3.84.94a6.62 6.62 0 0 1 2.66 2.76 9.2 9.2 0 0 1 .95 4.36v7.73c0 .47-.15.85-.45 1.15-.3.3-.67.46-1.12.46-.46 0-.83-.15-1.13-.46-.3-.3-.45-.68-.45-1.15v-7.73c0-1.7-.45-2.99-1.34-3.86a4.9 4.9 0 0 0-3.57-1.3c-.87 0-1.66.17-2.37.53-.7.36-1.26.84-1.67 1.45-.4.6-.6 1.29-.6 2.04v8.87a1.5 1.5 0 0 1-1.58 1.6c-.45 0-.82-.14-1.12-.45-.3-.3-.45-.68-.45-1.15v-21.39c0-.48.15-.87.45-1.16.3-.3.67-.44 1.13-.44.47 0 .85.14 1.14.44.29.3.43.68.43 1.16v7.71a6.82 6.82 0 0 1 2.35-1.56c.9-.36 1.88-.55 2.9-.55z"/><path id="i8knb" d="M364.76 321.03c.77 0 1.4.64 1.4 1.42a1.4 1.4 0 0 1-1.4 1.42 1.4 1.4 0 0 1-1.4-1.42c0-.78.63-1.42 1.4-1.42z"/><path id="i8knc" d="M412.04 289.6c.94 0 1.7.77 1.7 1.73 0 .95-.76 1.73-1.7 1.73s-1.7-.78-1.7-1.73c0-.96.76-1.74 1.7-1.74z"/><path id="i8knd" d="M402.93 277c2.04 0 3.7 1.7 3.7 3.78a3.74 3.74 0 0 1-3.7 3.78c-2.05 0-3.7-1.7-3.7-3.78a3.74 3.74 0 0 1 3.7-3.78z"/><path id="i8kne" d="M395.21 283.44c-.4-2.48-9.47-3.25-15-2.22-3.17.6-5.45 1.4-9.22 3.48-8.63 4.75-10.77 11.51-11 16.52-.25 5.01 2.22 10.9 8.37 16.86 7.03 6.82 13.94 9.5 19.55 8.85 5.6-.65 11.27-4.07 16-11.94 4.65-7.7 4.86-14.16 3.62-18.02-1.09-3.4-3.84-7.12-9.28-7.68-6.52-.68-13.27 1.6-12.56 5.76.51 3 2.95 2.57 7.14 2.08.71-.08 2.69.06 3.04 2.5.12.82-.8 2.16-2.13 2.68-1.8.69-4.23.74-4.85 2.08-1.75 3.8 1.29 14.63-4.52 14.94-1.94.1-3.53-1.23-4.6-7.74-.41-2.49-.86-5.82-1.62-9.14-1.13-5-2.02-6.22-1.82-8.74.18-2.38 1.04-3.96 5-6.26a21.2 21.2 0 0 1 6.18-2.03c4.04-.7 7.9-.7 7.7-1.98z"/><path id="i8kng" d="M370.99 284.7s-4.34 1.94-7.64 6.5a18.56 18.56 0 0 0-3.37 10.02c-.24 5.01 2.23 10.9 8.38 16.86 7.03 6.82 13.94 9.5 19.55 8.85 5.6-.65 11.27-4.07 16-11.94-7.84 13.03-18.23 12.6-31.85 1.25-17.16-14.3-1.07-31.54-1.07-31.54z"/><path id="i8knh" d="M382.48 286.87s-8.67 3.41-8.2 8.5c.2 2.38.82 4.39 1.47 6.1.86 2.27 2.41 7.77 2.87 9.62 1.01 4.05 2.68 9.16 5.43 9.41 3.6.25 4.2-6.34 4.69-11.06.24-2.3.35-3.96.97-4.55.46-.43.97-.72 1.83-.9 1.2-.22 2.48-.03 3.43-.43.95-.4 1.48-1.2 1.64-2.09.15-.83-.3-1.78-1.07-3.08 1.1 1.85-.4 3.24-1.56 3.83-1.27.65-2.64.64-3.7 1.09-.68.3-1.2.63-1.39 1-.5 1.01-.58 3.18-.62 5.56-.06 4.25-.18 9.17-3.65 9.46-1.7.14-2.99-.9-3.7-3a26.99 26.99 0 0 1-1.23-5.26c-.26-1.92-.59-3.45-.82-5-1.1-7.36-2.62-7.88-2.46-13.03.1-3.5 6.07-6.17 6.07-6.17z"/><linearGradient id="i8knf" x1="384.18" x2="383.97" y1="327.02" y2="280.78" gradientUnits="userSpaceOnUse"><stop offset="0" stop-color="#4eadb3"/><stop offset="1" stop-color="#29deaa"/></linearGradient></defs><g><g transform="translate(-292 -276)"><g><use fill="#292f39" xlink:href="#i8kna"/></g><g><g><use fill="#31d3ac" xlink:href="#i8knb"/></g><g><use fill="#2addaa" xlink:href="#i8knc"/></g><g><use fill="#2adcaa" xlink:href="#i8knd"/></g><g><use fill="#ffe456" xlink:href="#i8kne"/><use fill="url(#i8knf)" xlink:href="#i8kne"/></g><g><use fill="#299393" xlink:href="#i8kng"/></g><g><use fill="#367e87" xlink:href="#i8knh"/></g></g></g></g></svg>