<svg xmlns="http://www.w3.org/2000/svg" xmlns:xlink="http://www.w3.org/1999/xlink" width="222" height="257" viewBox="0 0 222 257"><defs><path id="v4z6a" d="M2607 400.75c12.15 0 22 9.83 22 21.96a21.98 21.98 0 0 1-22 21.95c-12.15 0-22-9.83-22-21.95a21.98 21.98 0 0 1 22-21.96z"/><path id="v4z6b" d="M2555 254c26.52 0 48 21.46 48 47.92a47.96 47.96 0 0 1-48 47.92c-26.5 0-48-21.45-48-47.92a47.96 47.96 0 0 1 48-47.92z"/><path id="v4z6c" d="M2668.8 470.08c10.05 0 18.2 8.12 18.2 18.15a18.18 18.18 0 0 1-18.2 18.15 18.18 18.18 0 0 1-18.21-18.15 18.18 18.18 0 0 1 18.2-18.15z"/><path id="v4z6d" d="M2507.14 298a39.67 39.67 0 0 1 39.73 39.62 39.68 39.68 0 0 1-39.73 39.62 39.68 39.68 0 0 1-39.73-39.62 39.67 39.67 0 0 1 39.73-39.62z"/><path id="v4z6e" d="M2607 473c9.39 0 17 7.58 17 16.92 0 9.34-7.61 16.9-17 16.9s-17-7.56-17-16.9 7.61-16.91 17-16.91z"/><path id="v4z6f" d="M2517.8 252c20.49 0 37.1 16.53 37.1 36.91 0 20.4-16.61 36.92-37.1 36.92-20.5 0-37.12-16.53-37.12-36.92 0-20.38 16.61-36.91 37.11-36.91z"/></defs><g><g transform="translate(-2466 -251)"><use fill="#2addaa" xlink:href="#v4z6a"/></g><g transform="translate(-2466 -251)"><use fill="#2adcaa" xlink:href="#v4z6b"/></g><g transform="translate(-2466 -251)"><use xlink:href="#v4z6c"/></g><g transform="translate(-2466 -251)"><use xlink:href="#v4z6d"/></g><g transform="translate(-2466 -251)"><use fill="#fff" xlink:href="#v4z6e"/></g><g transform="translate(-2466 -251)"><use fill="#fff" xlink:href="#v4z6f"/></g></g></svg>