<svg xmlns="http://www.w3.org/2000/svg" xmlns:xlink="http://www.w3.org/1999/xlink" width="126" height="145" viewBox="0 0 126 145"><defs><path id="4yffa" d="M8382.84 242.45a12.3 12.3 0 1 1-12.32 12.29 12.3 12.3 0 0 1 12.32-12.3z"/><path id="4yffb" d="M8353.73 160.25a26.86 26.86 0 0 1 26.87 26.84 26.86 26.86 0 0 1-26.87 26.83 26.86 26.86 0 0 1-26.88-26.83 26.86 26.86 0 0 1 26.88-26.84z"/><path id="4yffc" d="M8417.45 281.25c5.63 0 10.2 4.56 10.2 10.17 0 5.62-4.57 10.18-10.2 10.18a10.19 10.19 0 0 1 0-20.35z"/><path id="4yffd" d="M8326.93 184.9a22.22 22.22 0 0 1 22.24 22.19 22.22 22.22 0 0 1-22.24 22.19 22.22 22.22 0 0 1-22.26-22.2 22.22 22.22 0 0 1 22.26-22.18z"/><path id="4yffe" d="M8332.89 159.15a20.73 20.73 0 0 1 20.79 20.68c0 11.41-9.31 20.67-20.8 20.67a20.73 20.73 0 0 1-20.78-20.67c0-11.42 9.3-20.68 20.79-20.68z"/></defs><g><g transform="translate(-8303 -158)"><g><g><use fill="#2addaa" xlink:href="#4yffa"/></g><g><use fill="#2adcaa" xlink:href="#4yffb"/></g></g><g><g><use fill="#2addaa" xlink:href="#4yffc"/></g><g><use fill="#2adcaa" xlink:href="#4yffd"/></g></g><g><g><use fill="#2adcaa" xlink:href="#4yffe"/></g></g></g></g></svg>