<svg xmlns="http://www.w3.org/2000/svg" xmlns:xlink="http://www.w3.org/1999/xlink" width="50" height="38" viewBox="0 0 50 38"><defs><path id="89n9a" d="M7787.98 961.38l14.97 11.98v14.03c0 1.46-1.07 2.61-2.4 2.61h-14.15a.98.98 0 0 1-.95-.96c0-.5.44-.95.95-.95h14.15c.25 0 .5-.32.5-.7v-13.07l-13.07-10.52-13.02 10.52v13c0 .39.25.7.5.7h2.4c.51 0 .96.45.96.96s-.45.96-.95.96h-2.47c-1.32 0-2.4-1.15-2.4-2.62v-13.96zm22.87 13a.99.99 0 0 1-.76.38c-.19 0-.38-.06-.57-.19l-21.48-17.15-21.48 17.15c-.38.38-1.01.26-1.33-.13-.38-.38-.25-1.02.13-1.33l22.62-18.1 22.62 18.1c.44.31.5.89.25 1.27z"/></defs><g><g transform="translate(-7763 -954)"><use xlink:href="#89n9a"/></g></g></svg>