<svg xmlns="http://www.w3.org/2000/svg" xmlns:xlink="http://www.w3.org/1999/xlink" width="22" height="20" viewBox="0 0 22 20"><defs><path id="dlvea" d="M638.46 5346.94l6.27-6.27c.32-.32.77-.5 1.24-.5.5 0 .94.2 1.28.57.72.72.74 1.86.08 2.52l-7.8 7.85-2.57 2.57c-.62.62-1.43.96-2.32.96a3.25 3.25 0 0 1-3.26-3.28c0-.86.34-1.7.96-2.32l3.28-3.28 6.94-6.94a4.78 4.78 0 0 1 6.74-.1 4.54 4.54 0 0 1 1.33 3.33 4.9 4.9 0 0 1-1.43 3.41l-10.2 10.22"/></defs><g><g transform="translate(-630 -5336)"><use fill="#fff" fill-opacity="0" stroke="#9197a1" stroke-miterlimit="50" xlink:href="#dlvea"/></g></g></svg>