<svg xmlns="http://www.w3.org/2000/svg" xmlns:xlink="http://www.w3.org/1999/xlink" width="65" height="62" viewBox="0 0 65 62"><defs><path id="5mxoa" d="M1060.5 1028.19v4.72a.6.6 0 0 1-.59.6h-9.5a.6.6 0 0 1-.6-.6v-5.03a14.1 14.1 0 0 1-5.22-2.22l-.21.18c-.3.27-.7.69-1.09 1.13-.4.43-.8.9-1.14 1.27-.33.37-.53.62-.8.82a.6.6 0 0 1-.77-.06l-6.63-6.72a.61.61 0 0 1 0-.85l3.24-3.29c-1.1-1.73-1.82-3-2.25-5.22h-4.84a.6.6 0 0 1-.6-.6v-9.64c0-.33.27-.6.6-.6h4.62c.5-2.55 1-3.3 2.43-5.26l-3.2-3.25a.61.61 0 0 1 0-.85l6.63-6.73a.6.6 0 0 1 .84 0l3.04 3.09a10.94 10.94 0 0 1 5.35-2.12v-4.87c0-.33.27-.6.6-.6h9.5c.33 0 .6.27.6.6v4.95c2.43.44 2.33 40.66 0 41.15zm-21.93-10.06zm0 .01z"/><path id="5mxob" d="M1071.2 1029.83l-5.22-6.31h-10.5a15.02 15.02 0 1 1 .49-30.05zm-12.23-36.34h2.04zm12.33-6.38l-5.32 6.4-1.98-.01z"/><path id="5mxoc" d="M1083.42 1021.49h-10.87l-3.25-3.93c5.08 1.47 14.12 3.93 14.12 3.93zm-14.12-3.93c-2.15-.62-3.6-1.07-3.33-1.07h2.45zm-8.33-1.06zm.04 0h1.99-1.99zm-3.01 0h-2.5a8 8 0 0 1-.02-16l12.94.01 4.13-5h10.87s-24.4 20.99-25.42 20.99zm-2.5-16h-.01z"/><path id="5mxod" d="M1083.32 1008.49h-17.35 17.35zm-20.31 0h-2.04zm-7.04 0h2.03z"/><path id="5mxoe" d="M1088.53 1003.5a4.97 4.97 0 1 1 0 9.94 4.97 4.97 0 0 1 0-9.94zm0-13a4.97 4.97 0 1 1 0 9.94 4.97 4.97 0 0 1 0-9.94zm-14-12a4.97 4.97 0 1 1 0 9.94 4.97 4.97 0 0 1 0-9.94zm14 38a4.97 4.97 0 1 1 0 9.94 4.97 4.97 0 0 1 0-9.94zm-14 12a4.97 4.97 0 1 1 0 9.94 4.97 4.97 0 0 1 0-9.94z"/></defs><g><g transform="translate(-1029 -977)"><g><use fill="#fff" fill-opacity="0" stroke="#9197a1" stroke-linecap="round" stroke-linejoin="round" stroke-miterlimit="50" xlink:href="#5mxoa"/></g><g><use fill="#fff" fill-opacity="0" stroke="#9197a1" stroke-linecap="round" stroke-linejoin="round" stroke-miterlimit="50" xlink:href="#5mxob"/></g><g><use fill="#fff" fill-opacity="0" stroke="#9197a1" stroke-linecap="round" stroke-linejoin="round" stroke-miterlimit="50" xlink:href="#5mxoc"/></g><g><use fill="#fff" fill-opacity="0" stroke="#9197a1" stroke-linecap="round" stroke-linejoin="round" stroke-miterlimit="50" xlink:href="#5mxod"/></g><g><use fill="#fff" fill-opacity="0" stroke="#9197a1" stroke-linecap="round" stroke-linejoin="round" stroke-miterlimit="50" xlink:href="#5mxoe"/></g></g></g></svg>