<svg xmlns="http://www.w3.org/2000/svg" xmlns:xlink="http://www.w3.org/1999/xlink" width="65" height="62" viewBox="0 0 65 62"><defs><path id="o9cca" d="M780.13 1016.9a3.02 3.02 0 0 1-3.03-3.02v-4.51c0-1.66-1.36-3-3.03-3a3.02 3.02 0 0 0-3.03 3v18.11c0 1.67-1.36 3.01-3.03 3.01a3.02 3.02 0 0 1-3.04-3v-10.1c0-1.66-1.35-3-3.03-3a3.02 3.02 0 0 0-3.03 3v14.1c0 1.67-1.36 3.02-3.03 3.02a3.02 3.02 0 0 1-3.03-3.01v-20.85c0-1.66-1.36-3-3.03-3a3.02 3.02 0 0 0-3.03 3v.73c0 1.66-1.36 3-3.04 3a3.02 3.02 0 0 1-3.03-3v-19.06c0-1.66 1.36-3.01 3.03-3.01a3.02 3.02 0 0 1 3.04 3v4.52c0 1.66 1.35 3.01 3.03 3.01a3.02 3.02 0 0 0 3.03-3V985.3c0-1.66 1.36-3.01 3.03-3.01a3.02 3.02 0 0 1 3.03 3v5.02c0 1.67 1.36 3.01 3.03 3.01a3.02 3.02 0 0 0 3.03-3v-6.02c0-1.67 1.36-3.01 3.04-3.01a3.02 3.02 0 0 1 3.03 3v7.03c0 1.66 1.36 3 3.03 3a3.02 3.02 0 0 0 3.03-3v-2.51c0-1.66 1.36-3.01 3.03-3.01a3.02 3.02 0 0 1 3.03 3v25.08c0 1.66-1.35 3.01-3.03 3.01z"/><path id="o9ccb" d="M758.02 1014.67l19.04-19.06a3.13 3.13 0 0 1 4.42 0l4.43 4.43a3.13 3.13 0 0 1 0 4.43l-19.04 19.06a3.13 3.13 0 0 1-4.43 0l-4.42-4.43a3.13 3.13 0 0 1 0-4.43zm27.23 11.86l3.66-3.67 3.32 3.32-1.58 1.59 1.21-1.22 11.8 11.8-2.93 2.94-11.8-11.8-.37.36z"/><path id="o9ccc" d="M786.6 999.94l4.7 4.64-5.92 16.3 3 2.95-1.5 1.47-4.05-4 5.92-16.29-1.6-1.57"/></defs><g><g transform="translate(-740 -980)"><g><use fill="#fff" fill-opacity="0" stroke="#9197a1" stroke-miterlimit="50" xlink:href="#o9cca"/></g><g><use fill="#fff" xlink:href="#o9ccb"/><use fill="#fff" fill-opacity="0" stroke="#9197a1" stroke-miterlimit="50" xlink:href="#o9ccb"/></g><g><use fill="#fff" fill-opacity="0" stroke="#9197a1" stroke-miterlimit="50" xlink:href="#o9ccc"/></g></g></g></svg>