<svg xmlns="http://www.w3.org/2000/svg" xmlns:xlink="http://www.w3.org/1999/xlink" width="50" height="54" viewBox="0 0 50 54"><defs><path id="4ppia" d="M471.5 1025a2 2 0 0 1 2 2s1.08 8 7 8h5a6 6 0 0 0 6-6v-6a4 4 0 0 0-4-4h-32a4 4 0 0 0-4 4v6a6 6 0 0 0 6 6h5c5.92 0 7-8 7-8 0-1.1.9-2 2-2z"/><path id="4ppib" d="M463.5 986.5a22 22 0 0 0-14 20.5l-2 2v4s7.25 2 24 2 24-2 24-2v-4l-2-2a22 22 0 0 0-14-20.5"/><path id="4ppic" d="M463.5 993v-7.5a2.5 2.5 0 0 1 2.5-2.5h11a2.5 2.5 0 0 1 2.5 2.5v7.5"/><path id="4ppid" d="M471.5 981v14m-16 11.91h32"/><path id="4ppie" d="M451.5 1029h-4v-6h4m40 0h4v6h-4m-26.17-10l-12.75 12.75m16.5-12.5l-14.46 14.46"/></defs><g><g transform="translate(-446 -982)"><g><use fill="#fff" fill-opacity="0" stroke="#9197a1" stroke-miterlimit="50" xlink:href="#4ppia"/></g><g><use fill="#fff" fill-opacity="0" stroke="#9197a1" stroke-miterlimit="50" xlink:href="#4ppib"/></g><g><use fill="#fff" fill-opacity="0" stroke="#9197a1" stroke-miterlimit="50" xlink:href="#4ppic"/></g><g><use fill="#fff" fill-opacity="0" stroke="#9197a1" stroke-miterlimit="50" xlink:href="#4ppid"/></g><g><use fill="#fff" fill-opacity="0" stroke="#9197a1" stroke-miterlimit="50" xlink:href="#4ppie"/></g></g></g></svg>