<svg xmlns="http://www.w3.org/2000/svg" xmlns:xlink="http://www.w3.org/1999/xlink" width="65" height="62" viewBox="0 0 65 62"><defs><path id="6asya" d="M1060.507 1028.19v4.717a.6.6 0 0 1-.597.604h-9.502a.6.6 0 0 1-.597-.604v-5.026c-2.173-.438-3.382-1.089-5.221-2.22-.06.048-.133.11-.212.182-.296.272-.69.687-1.087 1.124-.397.436-.8.895-1.137 1.27-.336.377-.532.624-.797.824a.59.59 0 0 1-.779-.056l-6.628-6.72a.611.611 0 0 1 0-.856l3.239-3.284c-1.091-1.737-1.817-2.996-2.247-5.223h-4.84a.6.6 0 0 1-.597-.604v-9.636c0-.334.267-.605.597-.605h4.615c.503-2.543 1.001-3.296 2.433-5.26l-3.2-3.246a.611.611 0 0 1 0-.855l6.628-6.721a.591.591 0 0 1 .844 0l3.042 3.085c1.98-1.347 2.911-1.698 5.347-2.121v-4.866a.6.6 0 0 1 .597-.605h9.502a.6.6 0 0 1 .597.605v4.948c2.436.441 2.332 40.664 0 41.15zm-21.938-10.056v-.001zm.005.006l-.005-.006.005.006z"/><path id="6asyb" d="M1071.204 1029.834l-5.22-6.318-10.498.001c-8.302 0-15.032-6.723-15.032-15.017s6.73-15.018 15.032-15.018c.365 0 .483-.014.483-.014zm-12.235-36.342l2.041-.003zm12.33-6.378l-5.317 6.4-1.982-.014z"/><path id="6asyc" d="M1083.417 1021.49h-10.866l-3.25-3.931c5.078 1.468 14.116 3.93 14.116 3.93zm-14.116-3.931c-2.156-.623-3.598-1.067-3.332-1.068 1.415 0 2.448-.002 2.448-.002zm-8.332-1.064zm.041 0h1.99-1.99zm-3.01.002h-2.507c-4.425 0-8.012-3.582-8.012-8.003 0-4.416 3.58-7.996 8-8.003 1.253.003 12.936.019 12.936.019l4.134-5h10.866s-24.406 20.987-25.417 20.987zm-2.507-16.006h0z"/><path id="6asyd" d="M1083.323 1008.49l-17.354.002 17.354-.003zm-20.313 0l-2.041.002zm-7.041.006l2.031-.002z"/><path id="6asye" d="M1088.531 1003.5a4.969 4.969 0 1 1 0 9.937 4.969 4.969 0 0 1 0-9.937zm0-13a4.968 4.968 0 1 1 0 9.937 4.968 4.968 0 0 1 0-9.937zm-14-12a4.969 4.969 0 1 1 0 9.938 4.969 4.969 0 0 1 0-9.938zm14 38a4.969 4.969 0 1 1 0 9.938 4.969 4.969 0 0 1 0-9.938zm-14 12a4.968 4.968 0 1 1 0 9.937 4.968 4.968 0 0 1 0-9.937z"/></defs><g><g transform="translate(-1029 -977)"><g><use fill="#fff" fill-opacity="0" stroke="#9197a1" stroke-linecap="round" stroke-linejoin="round" stroke-miterlimit="50" xlink:href="#6asya"/></g><g><use fill="#fff" fill-opacity="0" stroke="#9197a1" stroke-linecap="round" stroke-linejoin="round" stroke-miterlimit="50" xlink:href="#6asyb"/></g><g><use fill="#fff" fill-opacity="0" stroke="#9197a1" stroke-linecap="round" stroke-linejoin="round" stroke-miterlimit="50" xlink:href="#6asyc"/></g><g><use fill="#fff" fill-opacity="0" stroke="#9197a1" stroke-linecap="round" stroke-linejoin="round" stroke-miterlimit="50" xlink:href="#6asyd"/></g><g><use fill="#fff" fill-opacity="0" stroke="#9197a1" stroke-linecap="round" stroke-linejoin="round" stroke-miterlimit="50" xlink:href="#6asye"/></g></g></g></svg>