<svg xmlns="http://www.w3.org/2000/svg" xmlns:xlink="http://www.w3.org/1999/xlink" width="756" height="652" viewBox="0 0 756 652"><defs><path id="c13aa" d="M2141.64 351.72s-56.12 24.61-98.86 82.63c-36.07 48.97-42.28 100.63-43.58 127.13-3.12 63.63 28.82 138.24 108.42 214.01 91.01 86.63 180.5 120.57 253 112.3 72.49-8.27 145.96-51.66 207.28-151.5-101.58 165.4-236.06 160.05-412.44 15.9-222.1-181.52-13.82-400.47-13.82-400.47z"/><path id="c13ab" d="M2079 798.12c9.93 0 17.98 8.04 17.98 17.96 0 9.93-8.05 17.97-17.99 17.97a17.98 17.98 0 0 1 0-35.93z"/><path id="c13ac" d="M2607 400.75c12.15 0 22 9.83 22 21.96a21.98 21.98 0 0 1-22 21.95c-12.15 0-22-9.83-22-21.95a21.98 21.98 0 0 1 22-21.96z"/><path id="c13ad" d="M2555 254c26.52 0 48 21.46 48 47.92a47.96 47.96 0 0 1-48 47.92c-26.5 0-48-21.45-48-47.92a47.96 47.96 0 0 1 48-47.92z"/><path id="c13ae" d="M2424.56 365.65c-4.22-26.03-101.47-34.22-160.71-23.32-33.93 6.25-58.44 14.68-98.8 36.46-92.38 49.83-115.3 120.83-117.89 173.43-2.58 52.6 23.86 114.29 89.74 176.93 75.31 71.63 149.37 99.69 209.37 92.85 60-6.83 120.8-42.71 171.54-125.26 49.72-80.87 51.97-148.67 38.71-189.2-11.66-35.62-41.15-74.68-99.4-80.58-69.82-7.06-142.21 16.9-134.6 60.44 5.5 31.48 31.66 27 76.53 21.9 7.6-.86 28.8.63 32.55 26.28 1.25 8.53-8.55 22.63-22.87 28.03-19.27 7.26-45.27 7.81-51.9 21.9-18.76 39.81 13.8 153.52-48.39 156.78-20.78 1.1-37.9-12.9-49.37-81.25-4.38-26.08-9.2-61.09-17.27-95.96-12.12-52.36-21.65-65.2-19.57-91.7 1.95-24.94 11.13-41.56 53.66-65.69 14.77-8.37 42.32-17.42 66.14-21.37 43.26-7.17 84.7-7.34 82.53-20.67z"/><path id="c13af" d="M2076.3 760.26c8.23 0 14.9 6.65 14.9 14.86 0 8.2-6.67 14.85-14.9 14.85-8.22 0-14.89-6.65-14.89-14.85s6.67-14.86 14.9-14.86z"/><path id="c13ag" d="M2668.8 470.08c10.05 0 18.2 8.12 18.2 18.15a18.18 18.18 0 0 1-18.2 18.15 18.18 18.18 0 0 1-18.21-18.15 18.18 18.18 0 0 1 18.2-18.15z"/><path id="c13ah" d="M2507.14 298a39.67 39.67 0 0 1 39.73 39.62 39.68 39.68 0 0 1-39.73 39.62 39.68 39.68 0 0 1-39.73-39.62 39.67 39.67 0 0 1 39.73-39.62z"/><path id="c13ai" d="M2443.66 413.01c-3.94-24.25-94.77-31.87-150.1-21.72-31.69 5.82-54.58 13.68-92.28 33.96-86.28 46.42-107.7 112.54-110.1 161.54-2.41 49 22.28 106.45 83.8 164.8 70.35 66.71 139.52 92.85 195.56 86.48 56.03-6.37 112.82-39.79 160.22-116.67 46.43-75.33 48.53-138.47 36.15-176.22-10.9-33.19-38.44-69.57-92.85-75.06-65.2-6.58-132.81 15.75-125.7 56.3 5.13 29.31 29.57 25.15 71.47 20.39 7.1-.8 26.9.58 30.4 24.48 1.17 7.95-7.98 21.08-21.36 26.1-18 6.77-42.28 7.28-48.47 20.4-17.52 37.09 12.89 143-45.2 146.04-19.4 1.01-35.4-12.02-46.1-75.69-4.1-24.28-8.6-56.9-16.13-89.38-11.32-48.76-20.22-60.72-18.28-85.4 1.82-23.23 10.4-38.72 50.12-61.19 13.8-7.8 39.52-16.23 61.77-19.9 40.4-6.69 79.1-6.84 77.08-19.26z"/><path id="c13aj" d="M2138.94 780.55c7.68 0 13.9 6.2 13.9 13.84 0 7.65-6.22 13.84-13.9 13.84-7.68 0-13.9-6.2-13.9-13.84s6.22-13.84 13.9-13.84z"/><path id="c13ak" d="M2607 473c9.39 0 17 7.58 17 16.92 0 9.34-7.61 16.9-17 16.9s-17-7.56-17-16.9 7.61-16.91 17-16.91z"/><path id="c13al" d="M2517.8 252c20.49 0 37.1 16.53 37.1 36.91 0 20.4-16.61 36.92-37.1 36.92-20.5 0-37.12-16.53-37.12-36.92 0-20.38 16.61-36.91 37.11-36.91z"/></defs><g><g transform="translate(-1932 -251)"><g><g><use fill="#2adcaa" xlink:href="#c13aa"/></g><g><use fill="#31d3ac" xlink:href="#c13ab"/></g><g><use fill="#2addaa" xlink:href="#c13ac"/></g><g><use fill="#2adcaa" xlink:href="#c13ad"/></g></g><g><g><use xlink:href="#c13ae"/></g><g><use xlink:href="#c13af"/></g><g><use xlink:href="#c13ag"/></g><g><use xlink:href="#c13ah"/></g></g><g><g><use fill="#fff" xlink:href="#c13ai"/></g><g><use fill="#fff" xlink:href="#c13aj"/></g><g><use fill="#fff" xlink:href="#c13ak"/></g><g><use fill="#fff" xlink:href="#c13al"/></g></g></g></g></svg>