<svg xmlns="http://www.w3.org/2000/svg" xmlns:xlink="http://www.w3.org/1999/xlink" width="43" height="22" viewBox="0 0 43 22"><defs><path id="h1xga" d="M7278 329.25c0-.69.56-1.25 1.25-1.25h37.5a1.25 1.25 0 0 1 0 2.5h-37.5c-.69 0-1.25-.56-1.25-1.25zm40 8.75c0 .69-.56 1.25-1.25 1.25h-37.5a1.25 1.25 0 0 1 0-2.5h37.5c.69 0 1.25.56 1.25 1.25zm0 8.75c0 .7-.56 1.25-1.25 1.25h-25a1.25 1.25 0 1 1 0-2.5h25c.69 0 1.25.56 1.25 1.25z"/></defs><g><g transform="translate(-7277 -327)"><use xlink:href="#h1xga"/></g></g></svg>