<svg xmlns="http://www.w3.org/2000/svg" width="180" height="180"><g fill="#01a1eb"><path d="M9.071 32.26a3.006 3.006 0 0 0-4.242 0 2.983 2.983 0 0 0-.879 2.122c0 .801.313 1.555.879 2.121.585.585 1.353.877 2.121.877s1.536-.292 2.121-.877c.566-.566.879-1.32.879-2.121a2.98 2.98 0 0 0-.879-2.122zm-1.414 2.829a.999.999 0 1 1 0-1.414v.001a.997.997 0 0 1 0 1.413z"/><path d="M47.292 13.687a2.303 2.303 0 0 0-1.309-1.648c-.451-.201-.619-.661-.844-1.394-.229-.752-.646-2.142-2.22-2.008-.533.053-1.001-.099-1.321-.418-.319-.319-.468-.789-.418-1.321.105-1.136-.248-2.173-.996-2.922-.706-.705-1.671-1.046-2.782-1.008l-.037-.192c-.143-.756-.438-2.314-2.612-2.607-.384-.122-1.437-.376-2.311.16-.417.257-.936.782-1.045 1.927l-.023 6.263h-10.21c-1.59 0-3.132.193-4.622.53a17.035 17.035 0 0 0-2.68-5.658l-.496-.685-.758.374c-.19.094-4.669 2.353-5.904 6.238-.5 1.571-.405 3.168.279 4.76C2.812 17.916.178 23.401.178 29.502v18.015h17.876a20.981 20.981 0 0 0 14.937-6.188c.484-.484.94-.99 1.371-1.511.44.036.896.062 1.386.062 2.821 0 6.408-.692 9.973-3.275l.685-.496-.376-.758c-.115-.233-2.686-5.299-7.065-6.105.126-.94.214-1.889.213-2.853v-10.15l6.317.059.08-.013c.455-.07.863-.287 1.183-.629l.003-.003c.48-.518.678-1.255.531-1.97zm-38.688-.982a4.528 4.528 0 0 1 .005-2.773c.708-2.237 2.954-3.888 4.141-4.629a15.004 15.004 0 0 1 1.889 4.267c-.904.297-1.774.663-2.62 1.075-.205.099-.414.191-.615.297-.28.148-.549.311-.822.47-.279.163-.556.327-.827.503-.246.16-.485.327-.723.497-.142.1-.29.189-.428.293zm30.009 18.5c2.521.471 4.392 3.002 5.193 4.287a14.73 14.73 0 0 1-8.029 2.387 20.853 20.853 0 0 0 2.79-6.511c.014-.055.033-.108.046-.163zM45.295 14.3l-8.117-.074v12.168c0 1.157-.116 2.295-.315 3.41l-.026.141a24.046 24.046 0 0 1-.294 1.287 19.17 19.17 0 0 1-3.432 6.928l-.387.494a19 19 0 0 1-14.669 6.865H2.178V29.503c0-5.809 2.629-11.01 6.752-14.496a18.788 18.788 0 0 1 5.182-3.117l.044-.016a18.94 18.94 0 0 1 1.91-.641 18.904 18.904 0 0 1 5.099-.716h12.202l.026-8.159c.021-.214.074-.312.098-.326.099-.062.445-.037.677.048l.25.062c.81.09.854.32.982 1.006.104.541.378 1.975 2.049 1.824.531-.05 1.001.099 1.322.418.319.32.468.79.418 1.322-.105 1.136.248 2.173.996 2.921.726.725 1.733 1.074 2.838 1.003.067.145.147.406.205.593.249.816.626 2.05 1.943 2.637.095.042.146.144.162.225.009.041.021.143-.039.208l.001.001zm.136.153v-.028l.597.553-.597-.525z"/><path d="M6.95 24.896v2c7.72 0 14 6.28 14 14h2c0-8.822-7.178-16-16-16z"/><path d="M10.205 21.642v2c7.72 0 14 6.28 14 14h2c0-8.823-7.178-16-16-16z"/><path d="M13.314 18.532v2c7.72 0 14 6.28 14 14h2c0-8.822-7.177-16-16-16z"/><path d="M16.569 15.277v2c7.72 0 14 6.28 14 14h2c0-8.822-7.177-16-16-16z"/></g></svg>