<svg xmlns="http://www.w3.org/2000/svg" viewBox="0 0 58.999 58.999" width="512" height="512"><path d="M55.999 29.242H40.963a1.73 1.73 0 0 0-.192-1.121 1.74 1.74 0 0 0-1.509-.879H1.735a1.74 1.74 0 0 0-1.49 2.633l1.631 2.732c.355.596.542 1.277.542 1.971v.463c0 3.419 2.769 6.201 6.172 6.201h23.814c3.336 0 6.055-2.675 6.162-6h17.431c1.654 0 3-1.346 3-3s-1.344-3-2.998-3zm-23.593 10H8.591a4.117 4.117 0 0 1-2.67-1h11.077a1 1 0 1 0 0-2H4.614a4.18 4.18 0 0 1-.175-1h8.845a1 1 0 1 0 0-2H4.253a5.853 5.853 0 0 0-.659-1.659l-1.397-2.341H38.8l-1.397 2.341c-.122.205-.229.42-.325.64-.057.13-.102.265-.149.399-.028.082-.06.161-.085.244a5.68 5.68 0 0 0-.134.544c-.008.039-.017.077-.024.116-.037.2-.062.401-.077.605l-.005.041-.075 1.069h.03c-.108 2.222-1.921 4.001-4.153 4.001zm23.593-6H38.826l.012-.034c.076-.205.167-.402.276-.586l.006-.012.815-1.367h16.063a1 1 0 0 1 .001 1.999zm-18 19h-4.904c1.745-1.328 2.726-2.29 2.883-3.472.17-1.285-.632-2.319-1.961-4.032a89.09 89.09 0 0 1-.845-1.099l-.603-.798-.798.603c-1.823 1.377-2.841 2.354-3.001 3.563-.17 1.285.632 2.319 1.961 4.032.259.333.542.697.845 1.099l.078.104H21.346c1.745-1.328 2.726-2.29 2.883-3.472.17-1.285-.632-2.319-1.961-4.032a89.09 89.09 0 0 1-.845-1.099l-.603-.798-.798.603c-1.823 1.377-2.841 2.354-3.001 3.563-.17 1.285.632 2.319 1.961 4.032.259.333.542.697.845 1.099l.078.104H9.346c1.745-1.328 2.726-2.29 2.883-3.472.17-1.285-.632-2.319-1.961-4.032a89.09 89.09 0 0 1-.845-1.099l-.603-.798-.798.603c-1.823 1.377-2.841 2.354-3.001 3.563-.17 1.285.632 2.319 1.961 4.032.259.333.542.697.845 1.099l.078.104H3.999a1 1 0 1 0 0 2h34a1 1 0 1 0 0-2zm-7.247-4.972c.053-.401.702-1.02 1.441-1.62l.244.314c.94 1.211 1.619 2.086 1.559 2.543-.053.401-.702 1.02-1.441 1.62a46.363 46.363 0 0 0-.244-.314c-.941-1.211-1.62-2.086-1.559-2.543zm-11.75 0c.053-.401.702-1.02 1.441-1.62l.244.314c.94 1.211 1.619 2.086 1.559 2.543-.053.401-.702 1.02-1.441 1.62a46.363 46.363 0 0 0-.244-.314c-.94-1.211-1.619-2.086-1.559-2.543zm-12 0c.053-.401.702-1.02 1.441-1.62l.244.314c.94 1.211 1.619 2.086 1.559 2.543-.053.401-.702 1.02-1.441 1.62a46.363 46.363 0 0 0-.244-.314c-.94-1.211-1.619-2.086-1.559-2.543zM9.24 18.485c0 1.868.729 3.627 2.052 4.949a.997.997 0 0 0 1.414 0 .999.999 0 0 0 0-1.414 4.969 4.969 0 0 1-1.466-3.535 4.97 4.97 0 0 1 1.466-3.536 6.954 6.954 0 0 0 2.052-4.95 6.953 6.953 0 0 0-2.052-4.949.999.999 0 1 0-1.414 1.414 4.969 4.969 0 0 1 1.466 3.535 4.97 4.97 0 0 1-1.466 3.536 6.95 6.95 0 0 0-2.052 4.95zm12.241 0c0 1.868.729 3.627 2.052 4.949a.997.997 0 0 0 1.414 0 .999.999 0 0 0 0-1.414 4.969 4.969 0 0 1-1.466-3.535 4.97 4.97 0 0 1 1.466-3.536 6.954 6.954 0 0 0 2.052-4.95 6.953 6.953 0 0 0-2.052-4.949.999.999 0 1 0-1.414 1.414 4.969 4.969 0 0 1 1.466 3.535 4.97 4.97 0 0 1-1.466 3.536 6.954 6.954 0 0 0-2.052 4.95z" fill="#01a1eb"/></svg>