<svg xmlns="http://www.w3.org/2000/svg" viewBox="0 0 53.43 53.43" width="512" height="512"><g fill="#01a1eb"><path d="M24.056 5.986c.066-1.096-.741-2.047-1.8-2.121a1.836 1.836 0 0 0-1.383.469c-.398.35-.646.859-.68 1.4-.066 1.096.741 2.047 1.8 2.121a1.88 1.88 0 0 0 1.384-.471c.4-.35.647-.859.679-1.398zm-2.001-.101l.048-.018.955.058-1.003-.04z"/><path d="M52.382 27.246l-3.22-6.326 1.331-.875.183-.154a4.149 4.149 0 0 0 1.077-3.245c-.116-1.141-.695-2.164-1.59-2.812L44.4 9.256c.037-.157.064-.282.08-.359a4.481 4.481 0 0 0-.285-3.655c-.586-1.071-1.582-1.825-2.733-2.07L30.193 1.396a3.73 3.73 0 0 0-1.338-.032c-.019-.014-.035-.03-.054-.043-3.461-2.429-9.134-.778-9.374-.705L6.863 6.683C4.304 5.402 2.659 3.484 2.78 1.495A1 1 0 0 0 1.842.437C1.311.429.817.824.783 1.374.631 3.882 2.181 6.201 4.775 7.839a1.73 1.73 0 0 0-.46 1.03c-.054.629.216 1.22.722 1.58 2.688 1.914 9.496 6.19 16.632 6.19.375 0 .751-.012 1.127-.036.222-.014.432-.043.646-.067l.078.083c.078.083.156.164.241.241l3.305 4.041a3.97 3.97 0 0 1-2.292.731 1 1 0 1 0 0 2 5.971 5.971 0 0 0 3.848-1.402c.87.51 1.858.79 2.857.79.084 0 .169-.01.253-.014a5.997 5.997 0 0 1-4.958 2.626 1 1 0 1 0 0 2 7.993 7.993 0 0 0 6.726-3.685l.569 1.863.068.169c.187.36.435.663.707.938l-.398 1.664-.025.177c-.063 1.137.408 2.224 1.262 2.909.25.201.525.351.811.468l-.677.785-.103.145a3.13 3.13 0 0 0-.209 2.807c.017.039.043.07.061.108-1.734.495-3.486.835-4.745.906-1.342.073-2.549 1.03-2.934 2.326-.295.989.001 1.955.772 2.521.861.631 2.277.515 4.507.247.835-.1 1.696-.211 2.188-.17.143.01.252.054.286.116s.034.207-.077.41c-.151.278-.356.623-.589 1.017-1.408 2.379-3.537 5.975-2.782 8.503.27.902 1.055 1.504 2.051 1.569.065.004.13.006.195.006 1.267 0 2.49-.796 3.024-1.99 1.042-2.332 4.035-5.869 7.203-9.613l.655-.775c.072-.085.275-.302.545-.59l.772-.832.014.002c.626 0 1.251-.2 1.782-.582a3.214 3.214 0 0 0 1.328-2.31l.006-.066-.177-4.492.193-.002.261-.037a3.581 3.581 0 0 0 2.241-1.903 3.655 3.655 0 0 0 .097-2.995zm-3.445-11.831l.042.031c.438.313.725.824.783 1.402a2.151 2.151 0 0 1-.479 1.599l-10.38 6.83-.183.154a1.881 1.881 0 0 1-.565.407 1.727 1.727 0 0 1-.477.154c-.01.001-.02.006-.031.008a1.615 1.615 0 0 1-.55-.025c-.021-.004-.042-.011-.063-.016a1.664 1.664 0 0 1-.521-.226l-.058-.039a1.826 1.826 0 0 1-.505-.565l-.927-3.037c.116-.052.223-.113.336-.168 4.95-2.386 7.383-7.495 8.436-10.592l5.142 4.083zM6.538 9.061l.318-.154c1.654.688 3.56 1.147 5.626 1.292l.07.002a1 1 0 0 0 .068-1.998 16.344 16.344 0 0 1-3.185-.544L20.072 2.51c1.443-.412 5.398-1.082 7.578.447.177.124.319.278.468.426.108.108.215.216.308.336.093.121.172.256.251.39.071.121.147.238.207.37.079.177.139.375.197.572.034.115.079.22.106.342.074.334.126.69.149 1.078l.013.112.006.042.006.049.007.054c.016.135.038.357.049.644v.001c.003.094.006.195.006.302v.006c0 .106-.001.215-.004.328l-.001.026c-.004.111-.01.227-.018.347l-.002.035c-.009.118-.02.239-.034.363l-.005.047c-.015.122-.033.247-.053.374l-.009.058a6.85 6.85 0 0 1-.091.451 8.065 8.065 0 0 1-.245.831l-.036.098a6.718 6.718 0 0 1-.147.357l-.052.113c-.053.113-.11.226-.172.337l-.074.128c-.061.105-.126.21-.195.313a5.06 5.06 0 0 1-.24.337c-1.122 1.423-2.933 2.225-5.382 2.384-6.597.451-13.254-3.555-16.125-5.547zm23.403 11.606a5.954 5.954 0 0 0 .833-3.035 1 1 0 1 0-2 0c0 .615-.151 1.19-.399 1.711l-2.368-2.894c1.775-.661 3.094-1.81 3.93-3.429l.011-.019c.096-.143.183-.288.268-.433.02-.034.042-.068.061-.103.082-.147.157-.295.228-.444.016-.034.034-.067.049-.101.07-.15.133-.3.192-.451l.039-.097a8.42 8.42 0 0 0 .158-.453l.03-.093c.047-.152.089-.302.127-.453l.022-.085c.037-.152.07-.301.099-.449l.015-.075c.028-.15.053-.297.074-.442l.009-.064c.02-.146.037-.29.051-.43l.005-.054c.013-.142.024-.28.031-.414l.002-.041c.007-.135.012-.265.014-.391v-.036c.002-.126.002-.247 0-.362v-.014a8.447 8.447 0 0 0-.011-.336v-.01a9.164 9.164 0 0 0-.08-.865c-.001-.024-.006-.045-.007-.069a9.408 9.408 0 0 0-.075-.716c-.024-.159-.059-.31-.091-.463-.019-.088-.032-.18-.053-.266a6.77 6.77 0 0 0-.173-.576c-.011-.033-.019-.068-.031-.1a6.057 6.057 0 0 0-.25-.595l-.012-.03L41.07 5.135c.579.13 1.064.508 1.37 1.067.347.634.397 1.389.14 2.071l-.047.165c-.006.035-.244 1.21-.851 2.832l-.102.27-.1.252c-.069.171-.141.346-.219.525l-.029.067c-1.048 2.401-2.87 5.439-5.83 7.251l-.035.021c-.196.119-.405.225-.611.333.005-.119.018-.236.018-.356a1 1 0 1 0-2 0c0 .407-.042.805-.119 1.19-.14.038-.278.08-.422.113a3.557 3.557 0 0 1-2.292-.269zM43.793 39.76l-.655.774c-3.262 3.855-6.344 7.498-7.502 10.089-.241.539-.822.851-1.264.805-.226-.015-.25-.097-.265-.146-.504-1.69 1.507-5.087 2.587-6.912.247-.416.463-.782.624-1.076.429-.786.456-1.636.075-2.331-.37-.674-1.064-1.093-1.904-1.15a5.372 5.372 0 0 0-.344-.011c-.629 0-1.404.094-2.218.191-.942.112-2.696.325-3.086.126-.028-.021-.114-.084-.038-.339.124-.419.58-.87 1.126-.9 1.736-.096 4.179-.614 6.45-1.365.03.009.062.018.094.024l6.866 1.625c-.269.29-.471.507-.546.596zm3.971-3.15c-.046.325-.225.62-.496.815-.144.103-.441.261-.801.185l-.03-.006-8.493-2.008c-.033-.011-.063-.025-.151-.063l-.114-.048a.884.884 0 0 1-.334-.395 1.104 1.104 0 0 1 .052-.94l1.605-1.862 8.588-.086.174 4.408zm2.721-7.243c-.187.385-.5.676-.871.813l-.351.003-6.558.066-4.371.043h-.003l-.251.002-.033.039a1.24 1.24 0 0 1-1.111-.227c-.337-.271-.524-.69-.52-1.159l.243-1.019c.055.012.11.016.165.025.041.007.077.025.118.031.054.007.107.006.161.011l.032.002c.102.009.204.021.304.021.038 0 .075-.01.113-.011a3.71 3.71 0 0 0 .493-.05c.109-.018.214-.046.32-.074.097-.025.192-.056.287-.09.111-.039.221-.079.328-.13a3.794 3.794 0 0 0 .618-.363 3.81 3.81 0 0 0 .497-.415l7.387-4.86 3.067 6.021c.164.418.141.898-.064 1.321z"/></g></svg>